<svg width="174" height="42" viewBox="0 0 174 42" fill="none" xmlns="http://www.w3.org/2000/svg">
<ellipse cx="20.5" cy="20.7097" rx="20.5" ry="20.5835" fill="url(#paint0_linear_83_132)"/>
<path d="M68.298 11.3726C68.9567 11.9792 69.442 12.7072 69.754 13.5566C70.066 14.3886 70.1873 15.2206 70.118 16.0526C70.0487 16.8499 69.7973 17.5866 69.364 18.2626C68.9307 18.9212 68.272 19.4239 67.388 19.7706C66.6947 20.0652 66.01 20.2732 65.334 20.3946C64.658 20.5159 63.9127 20.6112 63.098 20.6806C62.734 20.7152 62.422 20.7412 62.162 20.7586C61.9193 20.7586 61.6333 20.7672 61.304 20.7846C61.2347 20.7846 61.1133 20.7846 60.94 20.7846C60.784 20.7846 60.6713 20.7932 60.602 20.8106V26.1926C60.55 26.5219 60.4807 26.8599 60.394 27.2066C60.3247 27.5532 60.1253 27.8219 59.796 28.0126C59.6053 28.1166 59.3713 28.1772 59.094 28.1946C58.8167 28.2119 58.5653 28.2032 58.34 28.1686C58.0973 28.1339 57.8893 28.0732 57.716 27.9866C57.56 27.8826 57.43 27.7092 57.326 27.4666C57.2567 27.3106 57.1873 27.1372 57.118 26.9466C57.066 26.7386 57.04 26.4872 57.04 26.1926V11.8146C57.04 11.6932 57.0487 11.5806 57.066 11.4766C57.0833 11.3726 57.1007 11.2686 57.118 11.1646C57.1527 11.0779 57.1787 10.9826 57.196 10.8786C57.2133 10.7746 57.2393 10.6792 57.274 10.5926C57.3087 10.5059 57.3433 10.4279 57.378 10.3586C57.43 10.2892 57.4907 10.2286 57.56 10.1766C57.6467 10.0899 57.7767 10.0119 57.95 9.94258C58.1407 9.87324 58.418 9.83858 58.782 9.83858H58.834C59.3713 9.80391 59.9693 9.77791 60.628 9.76058C61.2867 9.72591 61.8327 9.73458 62.266 9.78658C62.5087 9.82124 62.734 9.84724 62.942 9.86458C63.15 9.86458 63.3493 9.87324 63.54 9.89058C63.748 9.90791 63.956 9.92524 64.164 9.94258C64.372 9.95991 64.58 9.98591 64.788 10.0206C64.9613 10.0552 65.1173 10.0812 65.256 10.0986C65.412 10.1159 65.568 10.1419 65.724 10.1766C65.8627 10.2112 66.01 10.2459 66.166 10.2806C66.3393 10.3152 66.4953 10.3759 66.634 10.4626C66.998 10.5666 67.3013 10.6966 67.544 10.8526C67.7867 11.0086 68.038 11.1819 68.298 11.3726ZM66.738 15.6626C66.7553 15.2466 66.6687 14.8826 66.478 14.5706C66.3047 14.2586 66.0533 13.9986 65.724 13.7906C65.3947 13.5826 65.022 13.4179 64.606 13.2966C64.19 13.1752 63.774 13.0886 63.358 13.0366C63.254 13.0366 63.1067 13.0366 62.916 13.0366C62.7427 13.0192 62.552 13.0106 62.344 13.0106C62.136 12.9932 61.9367 12.9846 61.746 12.9846C61.5727 12.9672 61.434 12.9586 61.33 12.9586C61.2433 12.9412 61.1393 12.9326 61.018 12.9326C60.8967 12.9326 60.758 12.9326 60.602 12.9326C60.6193 13.4699 60.628 13.9899 60.628 14.4926C60.628 14.9779 60.628 15.5066 60.628 16.0786C60.6107 16.3906 60.602 16.7026 60.602 17.0146C60.602 17.3266 60.602 17.6299 60.602 17.9246L62.214 17.8986C62.63 17.8986 63.0893 17.8726 63.592 17.8206C64.0947 17.7686 64.5713 17.6646 65.022 17.5086C65.4727 17.3526 65.854 17.1272 66.166 16.8326C66.4953 16.5379 66.686 16.1479 66.738 15.6626ZM84.1771 21.9546C84.1424 22.5266 84.1078 23.1072 84.0731 23.6966C84.0384 24.2686 83.9431 24.8232 83.7871 25.3606C83.6484 25.8979 83.4231 26.3832 83.1111 26.8166C82.8164 27.2499 82.3918 27.5966 81.8371 27.8566C81.3518 28.0992 80.8318 28.2639 80.2771 28.3506C79.7224 28.4546 79.1678 28.4979 78.6131 28.4806C78.0584 28.4632 77.5211 28.3766 77.0011 28.2206C76.4811 28.0819 76.0131 27.8826 75.5971 27.6226C75.1811 27.3626 74.8431 27.0246 74.5831 26.6086C74.3231 26.1926 74.1151 25.7419 73.9591 25.2566C73.8204 24.7712 73.7251 24.2686 73.6731 23.7486C73.6211 23.2286 73.5864 22.7432 73.5691 22.2926C73.4998 21.0966 73.4998 19.9179 73.5691 18.7566C73.5691 18.5312 73.5691 18.2799 73.5691 18.0026C73.5691 17.7079 73.5864 17.4219 73.6211 17.1446C73.6731 16.8672 73.7511 16.6159 73.8551 16.3906C73.9591 16.1479 74.1324 15.9659 74.3751 15.8446C74.8951 15.5672 75.3718 15.5499 75.8051 15.7926C76.2558 16.0352 76.5244 16.5379 76.6111 17.3006C76.6631 17.6992 76.6804 18.1412 76.6631 18.6266C76.6631 19.1119 76.6804 19.5539 76.7151 19.9526C76.7324 20.5419 76.7498 21.1832 76.7671 21.8766C76.7844 22.5526 76.8798 23.1592 77.0531 23.6966C77.2438 24.2339 77.5471 24.6412 77.9631 24.9186C78.3964 25.1786 79.0378 25.1872 79.8871 24.9446C80.2858 24.8232 80.5458 24.5199 80.6671 24.0346C80.8058 23.5492 80.8751 22.8299 80.8751 21.8766C80.8751 21.4606 80.8664 21.0012 80.8491 20.4986C80.8318 19.9959 80.8231 19.5019 80.8231 19.0166C80.8231 18.5139 80.8318 18.0546 80.8491 17.6386C80.8838 17.2052 80.9358 16.8759 81.0051 16.6506C81.0918 16.3386 81.2738 16.1046 81.5511 15.9486C81.8284 15.7926 82.1231 15.7146 82.4351 15.7146C82.7471 15.6972 83.0418 15.7579 83.3191 15.8966C83.5964 16.0352 83.7871 16.2606 83.8911 16.5726C83.9951 16.8499 84.0644 17.2052 84.0991 17.6386C84.1511 18.0546 84.1858 18.5139 84.2031 19.0166C84.2204 19.5019 84.2204 20.0046 84.2031 20.5246C84.2031 21.0272 84.1944 21.5039 84.1771 21.9546ZM94.6074 23.5666C94.278 23.3586 93.9054 23.1939 93.4894 23.0726C93.0907 22.9512 92.6747 22.8386 92.2414 22.7346C91.8254 22.6306 91.418 22.5179 91.0194 22.3966C90.6207 22.2579 90.2567 22.0672 89.9274 21.8246C89.2167 21.2872 88.8007 20.6286 88.6794 19.8486C88.5754 19.0512 88.7487 18.2539 89.1994 17.4566C89.442 17.0406 89.7627 16.7026 90.1614 16.4426C90.56 16.1652 90.9934 15.9572 91.4614 15.8186C91.9467 15.6626 92.4407 15.5759 92.9434 15.5586C93.446 15.5412 93.9227 15.5672 94.3734 15.6366C94.668 15.6886 94.98 15.7666 95.3094 15.8706C95.6387 15.9572 95.942 16.0786 96.2194 16.2346C96.514 16.3906 96.774 16.5899 96.9994 16.8326C97.242 17.0579 97.4154 17.3439 97.5194 17.6906C97.5887 17.9159 97.5974 18.1326 97.5454 18.3406C97.5107 18.5486 97.424 18.7219 97.2854 18.8606C97.164 18.9992 96.9994 19.1032 96.7914 19.1726C96.6007 19.2419 96.3927 19.2592 96.1674 19.2246C95.9074 19.1726 95.6647 19.0946 95.4394 18.9906C95.214 18.8866 94.9887 18.7739 94.7634 18.6526C94.538 18.5312 94.304 18.4272 94.0614 18.3406C93.836 18.2539 93.5934 18.2106 93.3334 18.2106C92.9347 18.1932 92.6054 18.2626 92.3454 18.4186C92.0854 18.5746 91.9034 18.7652 91.7994 18.9906C91.7127 19.2159 91.7214 19.4586 91.8254 19.7186C91.9467 19.9786 92.1894 20.2039 92.5534 20.3946C92.8827 20.5679 93.2467 20.7066 93.6454 20.8106C94.044 20.9146 94.434 21.0186 94.8154 21.1226C95.214 21.2266 95.5954 21.3479 95.9594 21.4866C96.3407 21.6252 96.6787 21.8159 96.9734 22.0586C97.5454 22.5266 97.892 23.0726 98.0134 23.6966C98.152 24.3206 98.1174 24.9359 97.9094 25.5426C97.7014 26.1492 97.3374 26.6866 96.8174 27.1546C96.3147 27.6226 95.7167 27.9346 95.0234 28.0906C94.5207 28.1946 93.9747 28.2466 93.3854 28.2466C92.8134 28.2466 92.2414 28.1859 91.6694 28.0646C91.1147 27.9432 90.5774 27.7526 90.0574 27.4926C89.5547 27.2326 89.13 26.9032 88.7834 26.5046C88.5407 26.2272 88.4107 25.9152 88.3934 25.5686C88.3934 25.2046 88.4627 24.8926 88.6014 24.6326C88.7574 24.3552 88.974 24.1646 89.2514 24.0606C89.5287 23.9566 89.8407 24.0172 90.1874 24.2426C90.4647 24.4332 90.794 24.6239 91.1754 24.8146C91.5567 24.9879 91.938 25.1266 92.3194 25.2306C92.7007 25.3346 93.0647 25.3866 93.4114 25.3866C93.7754 25.3866 94.0874 25.3086 94.3474 25.1526C94.7287 24.9099 94.928 24.6326 94.9454 24.3206C94.9627 23.9912 94.85 23.7399 94.6074 23.5666ZM112.42 23.0206C112.437 23.3672 112.446 23.7312 112.446 24.1126C112.446 24.4766 112.437 24.8146 112.42 25.1266C112.403 25.5946 112.377 26.0279 112.342 26.4266C112.307 26.8079 112.238 27.1372 112.134 27.4146C112.03 27.6746 111.865 27.8739 111.64 28.0126C111.432 28.1339 111.137 28.1686 110.756 28.1166C110.357 28.0646 110.071 27.8739 109.898 27.5446C109.725 27.2152 109.603 26.8426 109.534 26.4266C109.482 25.9932 109.465 25.5599 109.482 25.1266C109.499 24.6932 109.499 24.3552 109.482 24.1126C109.465 23.7312 109.447 23.2979 109.43 22.8126C109.43 22.3099 109.378 21.8419 109.274 21.4086C109.187 20.9579 109.031 20.5766 108.806 20.2646C108.581 19.9526 108.243 19.7879 107.792 19.7706C107.22 19.7359 106.778 19.7792 106.466 19.9006C106.171 20.0219 105.955 20.2039 105.816 20.4466C105.677 20.6719 105.591 20.9492 105.556 21.2786C105.539 21.6079 105.504 21.9632 105.452 22.3446L105.426 23.3586V25.2566C105.426 25.5686 105.417 25.8979 105.4 26.2446C105.4 26.5739 105.348 26.8772 105.244 27.1546C105.14 27.4319 104.975 27.6659 104.75 27.8566C104.542 28.0472 104.23 28.1426 103.814 28.1426C103.294 28.1426 102.904 27.9779 102.644 27.6486C102.401 27.3019 102.28 26.8772 102.28 26.3746V11.4246C102.28 11.3206 102.28 11.2252 102.28 11.1386C102.297 11.0346 102.315 10.9306 102.332 10.8266C102.367 10.7226 102.393 10.6272 102.41 10.5406C102.427 10.4366 102.453 10.3412 102.488 10.2546C102.54 10.0812 102.627 9.95124 102.748 9.86458C102.835 9.77791 102.921 9.70858 103.008 9.65658C103.095 9.60458 103.19 9.56991 103.294 9.55258C103.381 9.53524 103.476 9.52658 103.58 9.52658C103.684 9.50924 103.788 9.50058 103.892 9.50058C104.152 9.50058 104.403 9.57858 104.646 9.73458C104.75 9.80391 104.845 9.88191 104.932 9.96858C105.019 10.0379 105.088 10.1419 105.14 10.2806C105.279 10.6099 105.348 10.9219 105.348 11.2166C105.365 11.3032 105.374 11.4332 105.374 11.6066C105.391 11.7626 105.4 11.9272 105.4 12.1006C105.4 12.2739 105.4 12.4472 105.4 12.6206C105.417 12.7766 105.426 12.8979 105.426 12.9846V13.1146C105.443 13.6692 105.452 14.2326 105.452 14.8046C105.452 15.3766 105.452 15.9572 105.452 16.5466V16.9886C106.18 16.7459 106.943 16.6332 107.74 16.6506C108.537 16.6506 109.248 16.8066 109.872 17.1186C110.513 17.4479 110.999 17.8206 111.328 18.2366C111.675 18.6526 111.926 19.1119 112.082 19.6146C112.238 20.1172 112.325 20.6546 112.342 21.2266C112.377 21.7986 112.403 22.3966 112.42 23.0206ZM128.61 26.1666C128.645 26.2532 128.662 26.3832 128.662 26.5566C128.662 26.7126 128.662 26.8426 128.662 26.9466C128.662 27.0852 128.636 27.2152 128.584 27.3366C128.532 27.4579 128.463 27.5706 128.376 27.6746C128.22 27.8826 127.995 28.0386 127.7 28.1426C127.284 28.2812 126.894 28.3506 126.53 28.3506C126.34 28.3679 126.14 28.3766 125.932 28.3766C125.724 28.3766 125.516 28.3939 125.308 28.4286H125.204C123.87 28.4459 122.492 28.4459 121.07 28.4286C120.724 28.4112 120.334 28.4112 119.9 28.4286C119.467 28.4632 119.042 28.4546 118.626 28.4026C118.21 28.3679 117.829 28.2726 117.482 28.1166C117.153 27.9432 116.919 27.6746 116.78 27.3106C116.746 27.2239 116.72 27.1459 116.702 27.0766C116.685 26.9899 116.676 26.9032 116.676 26.8166C116.607 26.2272 116.581 25.6466 116.598 25.0746C116.616 24.5026 116.624 23.9392 116.624 23.3846L116.676 19.6146V16.1306C116.676 15.5066 116.676 14.9519 116.676 14.4666C116.694 13.9812 116.711 13.4439 116.728 12.8546V12.7246C116.746 12.5512 116.754 12.3779 116.754 12.2046C116.772 12.0312 116.78 11.8579 116.78 11.6846C116.815 11.2859 116.91 10.9479 117.066 10.6706C117.17 10.4106 117.352 10.2026 117.612 10.0466C117.838 9.89058 118.106 9.81258 118.418 9.81258C118.54 9.81258 118.652 9.82124 118.756 9.83858C118.878 9.83858 118.99 9.84724 119.094 9.86458C119.198 9.88191 119.294 9.91658 119.38 9.96858C119.484 10.0206 119.588 10.0899 119.692 10.1766C119.796 10.2979 119.892 10.4452 119.978 10.6186C120.048 10.8092 120.091 10.9999 120.108 11.1906C120.126 11.3119 120.143 11.4246 120.16 11.5286C120.178 11.6326 120.186 11.7366 120.186 11.8406C120.152 11.9446 120.134 12.0486 120.134 12.1526C120.134 12.2566 120.134 12.3519 120.134 12.4386V12.9066L120.03 25.1526L125.178 25.2046H126.4C126.504 25.2046 126.617 25.2132 126.738 25.2306C126.86 25.2306 126.981 25.2392 127.102 25.2566C127.241 25.2739 127.362 25.2912 127.466 25.3086C127.57 25.3259 127.674 25.3519 127.778 25.3866C127.969 25.4386 128.125 25.5252 128.246 25.6466C128.437 25.8199 128.558 25.9932 128.61 26.1666ZM134.804 16.3906C135.376 16.1132 135.974 15.9139 136.598 15.7926C137.222 15.6712 137.837 15.6452 138.444 15.7146C139.068 15.7839 139.666 15.9486 140.238 16.2086C140.827 16.4686 141.364 16.8326 141.85 17.3006C142.248 17.6992 142.595 18.1846 142.89 18.7566C143.184 19.3112 143.401 19.8572 143.54 20.3946C143.834 21.3479 143.878 22.3099 143.67 23.2806C143.462 24.2512 143.106 25.1526 142.604 25.9846C142.361 26.3659 142.058 26.7126 141.694 27.0246C141.347 27.3192 140.974 27.5619 140.576 27.7526C140.056 27.9952 139.492 28.1599 138.886 28.2466C138.279 28.3506 137.69 28.3766 137.118 28.3246C136.078 28.2726 135.159 28.0126 134.362 27.5446C133.582 27.0766 132.949 26.4786 132.464 25.7506C131.996 25.0226 131.684 24.1992 131.528 23.2806C131.389 22.3446 131.45 21.3912 131.71 20.4206C131.987 19.3806 132.386 18.5399 132.906 17.8986C133.443 17.2399 134.076 16.7372 134.804 16.3906ZM135.584 19.8746C135.324 20.1172 135.124 20.4206 134.986 20.7846C134.847 21.1486 134.76 21.5299 134.726 21.9286C134.691 22.3099 134.717 22.6999 134.804 23.0986C134.908 23.4799 135.064 23.8266 135.272 24.1386C135.445 24.3986 135.757 24.6152 136.208 24.7886C136.658 24.9619 137.126 25.0659 137.612 25.1006C138.166 25.1352 138.652 24.9879 139.068 24.6586C139.484 24.3119 139.796 23.8872 140.004 23.3846C140.229 22.8819 140.333 22.3359 140.316 21.7466C140.298 21.1572 140.142 20.6199 139.848 20.1346C139.64 19.7879 139.345 19.5366 138.964 19.3806C138.6 19.2072 138.21 19.1206 137.794 19.1206C137.395 19.1032 136.996 19.1639 136.598 19.3026C136.199 19.4239 135.861 19.6146 135.584 19.8746ZM158.742 23.2286C158.742 23.7832 158.724 24.3812 158.69 25.0226C158.672 25.6639 158.646 26.2619 158.612 26.8166C158.612 27.3366 158.586 27.8566 158.534 28.3766C158.499 28.8272 158.43 29.3126 158.326 29.8326C158.222 30.3699 158.074 30.8639 157.884 31.3146C157.641 31.9039 157.312 32.4066 156.896 32.8226C156.48 33.2559 155.942 33.5679 155.284 33.7586C154.729 33.8972 154.209 33.9839 153.724 34.0186C153.238 34.0706 152.718 34.0619 152.164 33.9926C151.8 33.9406 151.41 33.8366 150.994 33.6806C150.578 33.5419 150.188 33.3599 149.824 33.1346C149.46 32.9092 149.139 32.6406 148.862 32.3286C148.584 32.0339 148.394 31.6959 148.29 31.3146C148.168 30.8466 148.16 30.4392 148.264 30.0926C148.385 29.7459 148.567 29.4946 148.81 29.3386C149.052 29.1826 149.338 29.1566 149.668 29.2606C149.997 29.3646 150.309 29.6332 150.604 30.0666C150.812 30.3786 151.115 30.6299 151.514 30.8206C151.912 31.0112 152.337 31.1239 152.788 31.1586C153.238 31.1932 153.672 31.1326 154.088 30.9766C154.521 30.8379 154.859 30.5866 155.102 30.2226C155.275 29.9626 155.396 29.5899 155.466 29.1046C155.552 28.6192 155.604 28.1426 155.622 27.6746C154.738 28.0386 153.828 28.1772 152.892 28.0906C151.973 27.9866 151.132 27.7006 150.37 27.2326C149.624 26.7472 149.018 26.1059 148.55 25.3086C148.099 24.4939 147.908 23.5752 147.978 22.5526C148.03 21.6686 148.212 20.8366 148.524 20.0566C148.853 19.2766 149.39 18.6266 150.136 18.1066C150.742 17.6906 151.427 17.4219 152.19 17.3006C152.952 17.1619 153.689 17.0926 154.4 17.0926C154.816 17.0926 155.223 17.0926 155.622 17.0926C156.038 17.0926 156.419 17.1446 156.766 17.2486C157.112 17.3526 157.424 17.5259 157.702 17.7686C157.979 18.0112 158.187 18.3666 158.326 18.8346C158.551 19.5626 158.672 20.2819 158.69 20.9926C158.724 21.7032 158.742 22.4486 158.742 23.2286ZM153.724 25.3866C153.897 25.3866 154.062 25.3692 154.218 25.3346C154.391 25.2999 154.556 25.2566 154.712 25.2046C155.006 25.1006 155.223 24.9619 155.362 24.7886C155.518 24.6152 155.622 24.4246 155.674 24.2166C155.726 23.9912 155.743 23.7486 155.726 23.4886C155.726 23.2286 155.726 22.9599 155.726 22.6826C155.726 22.4572 155.717 22.2059 155.7 21.9286C155.7 21.6512 155.682 21.3912 155.648 21.1486C155.613 20.8886 155.561 20.6632 155.492 20.4726C155.422 20.2819 155.318 20.1606 155.18 20.1086C154.937 20.0392 154.66 19.9959 154.348 19.9786C154.036 19.9439 153.724 19.9439 153.412 19.9786C153.1 19.9959 152.796 20.0566 152.502 20.1606C152.224 20.2472 151.99 20.3686 151.8 20.5246C151.54 20.7499 151.34 21.0272 151.202 21.3566C151.063 21.6859 150.976 22.0326 150.942 22.3966C150.924 22.7606 150.95 23.1159 151.02 23.4626C151.106 23.8092 151.254 24.1212 151.462 24.3986C151.704 24.7452 152.034 24.9966 152.45 25.1526C152.866 25.3086 153.29 25.3866 153.724 25.3866ZM169.144 23.5666C168.815 23.3586 168.442 23.1939 168.026 23.0726C167.627 22.9512 167.211 22.8386 166.778 22.7346C166.362 22.6306 165.955 22.5179 165.556 22.3966C165.157 22.2579 164.793 22.0672 164.464 21.8246C163.753 21.2872 163.337 20.6286 163.216 19.8486C163.112 19.0512 163.285 18.2539 163.736 17.4566C163.979 17.0406 164.299 16.7026 164.698 16.4426C165.097 16.1652 165.53 15.9572 165.998 15.8186C166.483 15.6626 166.977 15.5759 167.48 15.5586C167.983 15.5412 168.459 15.5672 168.91 15.6366C169.205 15.6886 169.517 15.7666 169.846 15.8706C170.175 15.9572 170.479 16.0786 170.756 16.2346C171.051 16.3906 171.311 16.5899 171.536 16.8326C171.779 17.0579 171.952 17.3439 172.056 17.6906C172.125 17.9159 172.134 18.1326 172.082 18.3406C172.047 18.5486 171.961 18.7219 171.822 18.8606C171.701 18.9992 171.536 19.1032 171.328 19.1726C171.137 19.2419 170.929 19.2592 170.704 19.2246C170.444 19.1726 170.201 19.0946 169.976 18.9906C169.751 18.8866 169.525 18.7739 169.3 18.6526C169.075 18.5312 168.841 18.4272 168.598 18.3406C168.373 18.2539 168.13 18.2106 167.87 18.2106C167.471 18.1932 167.142 18.2626 166.882 18.4186C166.622 18.5746 166.44 18.7652 166.336 18.9906C166.249 19.2159 166.258 19.4586 166.362 19.7186C166.483 19.9786 166.726 20.2039 167.09 20.3946C167.419 20.5679 167.783 20.7066 168.182 20.8106C168.581 20.9146 168.971 21.0186 169.352 21.1226C169.751 21.2266 170.132 21.3479 170.496 21.4866C170.877 21.6252 171.215 21.8159 171.51 22.0586C172.082 22.5266 172.429 23.0726 172.55 23.6966C172.689 24.3206 172.654 24.9359 172.446 25.5426C172.238 26.1492 171.874 26.6866 171.354 27.1546C170.851 27.6226 170.253 27.9346 169.56 28.0906C169.057 28.1946 168.511 28.2466 167.922 28.2466C167.35 28.2466 166.778 28.1859 166.206 28.0646C165.651 27.9432 165.114 27.7526 164.594 27.4926C164.091 27.2326 163.667 26.9032 163.32 26.5046C163.077 26.2272 162.947 25.9152 162.93 25.5686C162.93 25.2046 162.999 24.8926 163.138 24.6326C163.294 24.3552 163.511 24.1646 163.788 24.0606C164.065 23.9566 164.377 24.0172 164.724 24.2426C165.001 24.4332 165.331 24.6239 165.712 24.8146C166.093 24.9879 166.475 25.1266 166.856 25.2306C167.237 25.3346 167.601 25.3866 167.948 25.3866C168.312 25.3866 168.624 25.3086 168.884 25.1526C169.265 24.9099 169.465 24.6326 169.482 24.3206C169.499 23.9912 169.387 23.7399 169.144 23.5666Z" fill="black"/>
<path d="M5 28.2403C13.8 24.6257 16 14.1833 20.5 13.1792C25 12.1752 22 23.2201 27.5 23.722C33 24.2239 37.5 17.1955 37.5 17.1955" stroke="white"/>
<defs>
<linearGradient id="paint0_linear_83_132" x1="-8.06451e-08" y1="12.0647" x2="41.0458" y2="28.4164" gradientUnits="userSpaceOnUse">
<stop stop-color="#7E99FF"/>
<stop offset="1" stop-color="#787BFF"/>
</linearGradient>
</defs>
</svg>
