<svg width="14" height="14" viewBox="0 0 14 14" fill="none" xmlns="http://www.w3.org/2000/svg">
<circle cx="7" cy="7" r="7" fill="url(#paint0_linear_94_11)"/>
<path d="M6.87038 6.22227C6.73286 6.22227 6.60097 6.2769 6.50373 6.37414C6.40649 6.47138 6.35186 6.60327 6.35186 6.74079V9.8519C6.35186 9.98942 6.40649 10.1213 6.50373 10.2185C6.60097 10.3158 6.73286 10.3704 6.87038 10.3704C7.0079 10.3704 7.13978 10.3158 7.23703 10.2185C7.33427 10.1213 7.3889 9.98942 7.3889 9.8519V6.74079C7.3889 6.60327 7.33427 6.47138 7.23703 6.37414C7.13978 6.2769 7.0079 6.22227 6.87038 6.22227ZM6.87038 4.14819C6.74219 4.14819 6.61687 4.18621 6.51029 4.25743C6.4037 4.32865 6.32062 4.42987 6.27157 4.54831C6.22251 4.66674 6.20967 4.79706 6.23468 4.92279C6.25969 5.04852 6.32142 5.16401 6.41207 5.25465C6.50271 5.3453 6.6182 5.40703 6.74393 5.43204C6.86966 5.45704 6.99998 5.44421 7.11841 5.39515C7.23685 5.3461 7.33807 5.26302 7.40929 5.15643C7.48051 5.04985 7.51853 4.92453 7.51853 4.79634C7.51853 4.62444 7.45024 4.45958 7.32869 4.33803C7.20714 4.21648 7.04228 4.14819 6.87038 4.14819Z" fill="white"/>
<defs>
<linearGradient id="paint0_linear_94_11" x1="3.11111" y1="5.7037" x2="14" y2="9.85185" gradientUnits="userSpaceOnUse">
<stop stop-color="#FFC107"/>
<stop offset="0.972619" stop-color="#FB8C00"/>
</linearGradient>
</defs>
</svg>
